<svg xmlns="http://www.w3.org/2000/svg" viewBox="0 0 512.33 100"><defs><style>.cls-1{fill:#231f20;}.cls-2{fill:#6fa84d;}.cls-3{fill:#fff;}</style></defs><g id="Layer_2" data-name="Layer 2"><g id="Layer_1-2" data-name="Layer 1"><path class="cls-1" d="M2.41,51A46.35,46.35,0,0,1,33.63,7l.86,3.45L41.41,3.8,32.16,1.15l.89,3.53A48.75,48.75,0,0,0,0,51,48.16,48.16,0,0,0,3.22,68.45a1.2,1.2,0,0,0,1.12.77,1.11,1.11,0,0,0,.44-.08,1.21,1.21,0,0,0,.69-1.56A45.8,45.8,0,0,1,2.41,51Z"/><path class="cls-1" d="M81.68,84.22a46.53,46.53,0,0,1-60.21,4.32l2.37-2.69L14.41,84l3.08,9.1,2.39-2.72A48.47,48.47,0,0,0,48.2,100H49A48.71,48.71,0,0,0,83.37,85.94a1.21,1.21,0,0,0,0-1.71A1.2,1.2,0,0,0,81.68,84.22Z"/><path class="cls-1" d="M97.05,60.39a50.71,50.71,0,0,0,.89-7.59A49.06,49.06,0,0,0,60.27,3.29a1.2,1.2,0,1,0-.55,2.34,46.5,46.5,0,0,1,35,54.09l-3.42-1,2.31,9.34,6.93-6.67Z"/><path class="cls-2" d="M53.13,3.36A3.36,3.36,0,1,1,49.77,0,3.37,3.37,0,0,1,53.13,3.36Z"/><path class="cls-2" d="M12.6,77.36A3.36,3.36,0,1,1,9.24,74,3.36,3.36,0,0,1,12.6,77.36Z"/><path class="cls-2" d="M92.54,77.36A3.36,3.36,0,1,1,89.18,74,3.36,3.36,0,0,1,92.54,77.36Z"/><path class="cls-2" d="M46.88,49.82,14.08,68.77A39.18,39.18,0,0,1,46.88,11.7Z"/><path class="cls-2" d="M48.82,53l33,19A39.14,39.14,0,0,1,16,72Z"/><path class="cls-2" d="M88.06,50.81a38.89,38.89,0,0,1-4.4,18l-33-19.07v-38A39.14,39.14,0,0,1,88.06,50.81Z"/><path class="cls-3" d="M67.94,76.35a.1.1,0,0,1-.07,0,11.59,11.59,0,0,1-7.16-.7h0c-1.35,3.66-6.84,6.25-14.42,5.78C37.68,80.91,32.9,76,29.92,72.2c7.15-2.72,12.44-7.52,21-7,6.27.38,8.92,2.55,9.78,5.43a1.32,1.32,0,0,1-1.53,1.7c-1.21-.26-2.44-.54-3.69-.72-6.2-.89-9-.57-12.54.21a.19.19,0,0,0-.14.18.19.19,0,0,0,.19.17,42.83,42.83,0,0,1,5.78-.07,39,39,0,0,1,6.78,1c2.07.47,4.08.82,6.06,1.33a9.78,9.78,0,0,0,5.66.12A1.18,1.18,0,0,1,67.94,76.35Z"/><path class="cls-3" d="M39.21,32.86a7.33,7.33,0,0,1-2.53,1,2.86,2.86,0,0,0,1,1.48,4.72,4.72,0,0,1,1.37-1.17c2.7-1,3-1.94,2.77-2.26C41.53,31.35,41.18,32.07,39.21,32.86Zm3.08,7.74c-1.19.47-4.66,2.59-9.92,7.78-1.44,1.42-5.52,4.72-7.52,4.87s-4.65-2.07-5-4.39c-.15-1.16-.09-1.88.88-2.25s2.48.79,3.73.87,4.2-1,4.63-.95.09.72.75,1.08,1.62-1,3-1.68,2.69-1.28,2.93-1.94-.1-.78-.89-.7a6.75,6.75,0,0,0-2.74,1.84c-.45.47-1.25,1-1.48.8s.19-1.26.44-2a5.49,5.49,0,0,0-.26-2.37c.7-.7,3.18-3.56,3.23-3.48a7,7,0,0,0,4.84-.58c1-.47,1.46-.08,2.28-.41,1.2-.48,2.95-2,2.44-2.62s-.55,0-2.73,1-3.56,1.19-4.68-.83c-.94-1.7,1-3.62,2-4.4.77-.64,1.26-.72,2.57-1.67a1.93,1.93,0,0,0,.75-2.27,2.28,2.28,0,0,0,.22-1.11c-.1-.24-.37-.39-1-.15s-2.5-.51-3.77-.65a2.77,2.77,0,0,0-2.13.85c-.78-2.25-2.27-2-2.64-1.92-.59.12-1.49.74-1.22,1.06s.84,1,1.42,1.68a2.56,2.56,0,0,0-.44.43c-1.28-.68-3-1-3.57-.15s.55,2.32,1.42,3.12l-.11.11c-2.07,2.23-8.59,2.84-11.52,6.35C16.61,37.78,16,43.45,16.2,45.5a16.21,16.21,0,0,0,1.61,6.19c.8,1.57,4.39,6.31,9.73,2.44,6.05-4.38,9.69-10.11,15-12.79C44.21,40.47,43.5,40.11,42.29,40.6Z"/><path class="cls-3" d="M62.22,33.58c-.1-.19-.11-.41-.21-.58s-.28-.34-.35-.53-.18-.37-.24-.56,0-.42-.11-.61-.15-.39-.21-.57-.13-.39-.18-.59,0-.42,0-.63-.16-.35-.19-.54-.32-.56-.48-.83L60.11,28l-.17-.16-.14-.11-.28-.18.13-.05a1.53,1.53,0,0,0,.26-.08l.14,0,.16-.17v0a.52.52,0,0,1,.07-.11l.12-.19c.13-.21.25-.43.36-.65a.1.1,0,0,0,0,0v0a1.26,1.26,0,0,1,0-.28.21.21,0,0,1,0-.07,2.27,2.27,0,0,1-.08-.49c0-.2.11-.4.16-.6s0-.41.06-.61.16-.39.22-.58.08-.4.14-.6.16-.38.23-.58.17-.36.25-.54a2.66,2.66,0,0,0,.28-.56,2.66,2.66,0,0,0,0-.63,1.6,1.6,0,0,0-.38-1.13A2.89,2.89,0,0,0,61.5,19a2,2,0,0,0-.47-.39,1.7,1.7,0,0,0-.53-.3,2.18,2.18,0,0,0-.57-.15,2.39,2.39,0,0,0-.59-.08,2.48,2.48,0,0,0-.61.06,2.59,2.59,0,0,0-.59.16c-.17.09-.28.29-.44.43a2.39,2.39,0,0,0-.46.38,2.7,2.7,0,0,0-.35.51l-.21.56c-.08.19-.08.4-.16.59s-.3.33-.36.52-.06.4-.12.59,0,.4-.1.6-.23.36-.28.55.08.43,0,.62-.08.41-.11.59-.16.39-.17.59.07.41.06.61-.19.4-.2.59v.39l0,.19c.08.18.17.37.27.56s.42.32.63.5l-.18.14-.14.14a.88.88,0,0,1-.1.1c0,.07-.09.14-.14.21a.11.11,0,0,1,0,.06s0,.05,0,.06a4.82,4.82,0,0,0-.2.61v0a0,0,0,0,0,0,0,.8.8,0,0,1,0,.15s0,.06,0,.11a1.4,1.4,0,0,1,.09.31c0,.2-.08.42,0,.62s.22.36.25.56,0,.41.07.61.09.39.14.59,0,.41.09.61.09.39.15.58.28.32.36.51,0,.44.05.64l.25.54c.08.19.14.39.22.58s.18.36.26.54.3.27.4.42a2.34,2.34,0,0,0,.39.38,2.21,2.21,0,0,0,.46.32c.15.1.29.28.46.33a2.8,2.8,0,0,0,.58.08,2.91,2.91,0,0,0,.71-.11,3.09,3.09,0,0,0,.75-.11A2.62,2.62,0,0,0,61.5,37a2.34,2.34,0,0,0,.44-.45,5.79,5.79,0,0,0,.31-.54,3.14,3.14,0,0,0,.12-.61,2.36,2.36,0,0,0,.11-.59,2.45,2.45,0,0,0-.11-.59A4.61,4.61,0,0,0,62.22,33.58ZM81.32,36l-.3-.47a1.95,1.95,0,1,0-3.29,2.08l.34.52c.78,1.19,1,1.63.83,2.08-.05.13-.2.21-1,.41a4.26,4.26,0,0,0-3.46,2.64c-.88,2.57.53,4.35,1.36,5.4a7.81,7.81,0,0,1,.52.7c-.08.18-.23.25-1,.44a4.33,4.33,0,0,0-3.51,2.63,5.72,5.72,0,0,0,1,5.61l.25.39a1.95,1.95,0,0,0,3.3-2.06l-.3-.47c-.71-1.07-.85-1.4-.62-2.08a4.67,4.67,0,0,1,.8-.24,4.65,4.65,0,0,0,3.9-3.27,4.37,4.37,0,0,0-1.25-4.06c-.72-.92-.87-1.21-.76-1.63a5.22,5.22,0,0,1,.75-.22,4.67,4.67,0,0,0,3.75-2.87C83.41,39.17,82.2,37.33,81.32,36Zm-21,7.89a3.24,3.24,0,0,0-.6-.72,2.73,2.73,0,0,0-.86-.35,2.68,2.68,0,0,0-.9-.06,2.74,2.74,0,0,0-.91,0,2.84,2.84,0,0,0-.85.38,3.18,3.18,0,0,0-.57.73,2.75,2.75,0,0,0-.5.77,2.8,2.8,0,0,0-.06.92,3,3,0,0,0,.08.91,2.16,2.16,0,0,0,1.11,1.43,3,3,0,0,0,.76.53,3.29,3.29,0,0,0,.94,0,2.9,2.9,0,0,0,.89-.13,3.27,3.27,0,0,0,.88-.3,3.1,3.1,0,0,0,.71-.64,3.17,3.17,0,0,0,.29-.9,3,3,0,0,0,.08-.9,2.58,2.58,0,0,0-.15-.88A2.64,2.64,0,0,0,60.28,43.88Zm9.21,2.34a2.9,2.9,0,0,0-.69-.61A3.07,3.07,0,0,0,68,45.1a3.23,3.23,0,0,0-.91-.2,3.15,3.15,0,0,0-.9.19,3.06,3.06,0,0,0-.89.27,3.27,3.27,0,0,0-.58.73,2.92,2.92,0,0,0-.45.78,3.43,3.43,0,0,0-.31.88,3.36,3.36,0,0,0,.06,1,3.42,3.42,0,0,0,.53.79,3,3,0,0,0,.66.62,2.49,2.49,0,0,0,.78.43,2.69,2.69,0,0,0,.87.24,2.64,2.64,0,0,0,.93,0,2.78,2.78,0,0,0,1.42-1.13,3.14,3.14,0,0,0,.53-.74A2.83,2.83,0,0,0,70,48a3.2,3.2,0,0,0-.22-.9A3,3,0,0,0,69.49,46.22Zm2.85-15a2.92,2.92,0,0,0,.78-.51,3.22,3.22,0,0,0,.44-.82,2.87,2.87,0,0,0,.16-.89,3.17,3.17,0,0,0,.06-.91,3.32,3.32,0,0,0-.29-.89,3.4,3.4,0,0,0-.67-.64,2.82,2.82,0,0,0-.71-.58,2.94,2.94,0,0,0-.91-.16,3.1,3.1,0,0,0-.91,0,3.29,3.29,0,0,0-.88.31,3.33,3.33,0,0,0-.66.64,3.1,3.1,0,0,0-.61.7,2.86,2.86,0,0,0-.1.93,2.7,2.7,0,0,0,0,.9,3.35,3.35,0,0,0,.2.91,3.31,3.31,0,0,0,.56.77,3.12,3.12,0,0,0,.87.39,2.81,2.81,0,0,0,.88.17,2.63,2.63,0,0,0,.89,0A3.14,3.14,0,0,0,72.34,31.26Z"/><path class="cls-2" d="M161.77,14.86h20.91V86.55H169.14V38.06c0-1.39,0-3.35,0-5.86s0-4.45,0-5.81L156.05,86.55H141.93L128.85,26.39c0,1.36,0,3.3.05,5.81s0,4.47,0,5.86V86.55H115.41V14.86h21.14l12.66,56.37Z"/><path class="cls-2" d="M235.3,36.22H203.91v13h28.81V59.83H203.91V75.55h32.84v11h-45V25.39H235.3Z"/><path class="cls-2" d="M289,25.39V36.22H271.25V86.55H258.77V36.22H241V25.39Z"/><path class="cls-2" d="M303.7,25.39h14l21,61.16H325.27L321.36,74H299.51l-4,12.57h-13Zm-.82,38.05h15.2l-7.5-24.07Z"/><path class="cls-1" d="M349.92,22.35q8.67-8.85,22-8.85,17.9,0,26.17,11.87A25.88,25.88,0,0,1,403,38.74h-15A20.44,20.44,0,0,0,384.39,31q-4-4.66-11.86-4.67a14.63,14.63,0,0,0-12.63,6.59q-4.62,6.6-4.62,18.65t4.88,18.07a15.29,15.29,0,0,0,12.39,6q7.71,0,11.75-5.16A22.59,22.59,0,0,0,388,62.13h14.88a32.26,32.26,0,0,1-9.84,19.07q-7.91,7.33-20.28,7.34-15.28,0-24-9.92T340,51.29Q340,32.51,349.92,22.35Z"/><path class="cls-1" d="M446.79,25.39h14.48L440.81,63.62V86.55H428V63.62L406.88,25.39h15.06L434.63,52Z"/><path class="cls-1" d="M467,31.78q7.39-7.55,18.8-7.55,15.27,0,22.33,10.12a22.06,22.06,0,0,1,4.18,11.41H499.56a17.64,17.64,0,0,0-3.13-6.64q-3.42-4-10.12-4a12.49,12.49,0,0,0-10.78,5.62q-3.93,5.63-3.94,15.92t4.16,15.41a13.06,13.06,0,0,0,10.57,5.12q6.58,0,10-4.4a19.13,19.13,0,0,0,3.16-7.09h12.7A27.54,27.54,0,0,1,503.82,82q-6.75,6.27-17.3,6.27-13.06,0-20.53-8.47t-7.47-23.31Q458.52,40.45,467,31.78Z"/></g></g></svg>